<?xml version="1.0" encoding="UTF-8" standalone="no"?>
<!-- Created with Inkscape (http://www.inkscape.org/) -->

<svg
   xmlns:dc="http://purl.org/dc/elements/1.1/"
   xmlns:cc="http://creativecommons.org/ns#"
   xmlns:rdf="http://www.w3.org/1999/02/22-rdf-syntax-ns#"
   xmlns:svg="http://www.w3.org/2000/svg"
   xmlns="http://www.w3.org/2000/svg"
   xmlns:sodipodi="http://sodipodi.sourceforge.net/DTD/sodipodi-0.dtd"
   xmlns:inkscape="http://www.inkscape.org/namespaces/inkscape"
   width="744.09448819"
   height="1052.3622047"
   id="svg2"
   version="1.1"
   inkscape:version="0.48.4 r9939"
   sodipodi:docname="Forside.svg">
  <defs
     id="defs4">
    <clipPath
       id="clipPath3395"
       clipPathUnits="userSpaceOnUse">
      <path
         id="path3397"
         d="m 51.78,54.62 310.8,0 0,44.65 -310.8,0 0,-44.65 z" />
    </clipPath>
    <clipPath
       id="clipPath3389"
       clipPathUnits="userSpaceOnUse">
      <path
         id="path3391"
         d="m 51.78,99.27 310.8,0 0,-44.65 -310.8,0 0,44.65 z" />
    </clipPath>
    <clipPath
       id="clipPath3377"
       clipPathUnits="userSpaceOnUse">
      <path
         id="path3379"
         d="m 242.2301,449.3308 110.3,0 0,160.0292 -110.3,0 0,-160.0292 z" />
    </clipPath>
    <clipPath
       id="clipPath3371"
       clipPathUnits="userSpaceOnUse">
      <path
         id="path3373"
         d="m 242.2301,609.3814 110.3,0 0,-160.0506 -110.3,0 0,160.0506 z" />
    </clipPath>
    <clipPath
       id="clipPath3019"
       clipPathUnits="userSpaceOnUse">
      <path
         id="path3021"
         d="m 9,9 577.2,0 0,823.8 L 9,832.8 9,9 z" />
    </clipPath>
    <clipPath
       id="clipPath3007"
       clipPathUnits="userSpaceOnUse">
      <path
         id="path3009"
         d="m 331.83,762.27 246.75,0 0,57 -246.75,0 0,-57 z" />
    </clipPath>
    <clipPath
       id="clipPath3001"
       clipPathUnits="userSpaceOnUse">
      <path
         id="path3003"
         d="m 331.83,819.27 246.75,0 0,-57 -246.75,0 0,57 z" />
    </clipPath>
    <clipPath
       id="clipPath4300"
       clipPathUnits="userSpaceOnUse">
      <path
         id="path4302"
         d="M 0,251.738 0,0 l 2169.75,0 0,251.738 -2169.75,0 z" />
    </clipPath>
    <clipPath
       id="clipPath4344"
       clipPathUnits="userSpaceOnUse">
      <path
         id="path4346"
         d="M 0,365.891 0,0 l 2029.99,0 0,365.891 -2029.99,0 z" />
    </clipPath>
    <clipPath
       id="clipPath4379"
       clipPathUnits="userSpaceOnUse">
      <path
         id="path4381"
         d="M 0,1085 0,0 l 875.727,0 0,1085 L 0,1085 z" />
    </clipPath>
    <clipPath
       id="clipPath4624"
       clipPathUnits="userSpaceOnUse">
      <path
         id="path4626"
         d="m 0,0 1223,0 0,566.621 -1223,0 L 0,0 z" />
    </clipPath>
    <clipPath
       id="clipPath4659"
       clipPathUnits="userSpaceOnUse">
      <path
         id="path4661"
         d="M 0,566.609 0,0 l 1320.75,0 0,566.609 -1320.75,0 z" />
    </clipPath>
    <clipPath
       id="clipPath4715"
       clipPathUnits="userSpaceOnUse">
      <path
         id="path4717"
         d="M 0,566.609 0,0 l 1320.75,0 0,566.609 -1320.75,0 z" />
    </clipPath>
    <clipPath
       id="clipPath4797"
       clipPathUnits="userSpaceOnUse">
      <path
         id="path4799"
         d="m 0,0 9554,0 0,3510.76 -9554,0 L 0,0 z" />
    </clipPath>
    <clipPath
       id="clipPath5105"
       clipPathUnits="userSpaceOnUse">
      <path
         id="path5107"
         d="M 0,566.609 0,0 l 1320.75,0 0,566.609 -1320.75,0 z" />
    </clipPath>
  </defs>
  <sodipodi:namedview
     id="base"
     pagecolor="#ffffff"
     bordercolor="#666666"
     borderopacity="1.0"
     inkscape:pageopacity="0.0"
     inkscape:pageshadow="2"
     inkscape:zoom="0.98994949"
     inkscape:cx="286.72877"
     inkscape:cy="395.44739"
     inkscape:document-units="px"
     inkscape:current-layer="layer1"
     showgrid="false"
     inkscape:window-width="1920"
     inkscape:window-height="1017"
     inkscape:window-x="-8"
     inkscape:window-y="-8"
     inkscape:window-maximized="1" />
  <metadata
     id="metadata7">
    <rdf:RDF>
      <cc:Work
         rdf:about="">
        <dc:format>image/svg+xml</dc:format>
        <dc:type
           rdf:resource="http://purl.org/dc/dcmitype/StillImage" />
        <dc:title />
      </cc:Work>
    </rdf:RDF>
  </metadata>
  <g
     inkscape:label="Layer 1"
     inkscape:groupmode="layer"
     id="layer1">
    <text
       id="text3025"
       x="51.675026"
       y="109.2434"
       style="font-size:3.5999999px">
      <tspan
         id="tspan3027"
         y="109.2434"
         x="51.675026"
         style="font-size:22.5px;font-variant:normal;font-weight:normal;writing-mode:lr-tb;fill:#000000;fill-opacity:1;fill-rule:nonzero;stroke:none;font-family:Cambria;-inkscape-font-specification:Cambria" />
    </text>
    <text
       id="text3031"
       x="56.629848"
       y="109.2434"
       style="font-size:3.5999999px">
      <tspan
         id="tspan3033"
         sodipodi:role="line"
         y="109.2434"
         x="56.629848 61.584351 66.538849 71.493347 76.447845 81.402351 86.35685 91.311348 96.265846 101.22034 106.17485 111.12935 116.08385"
         style="font-size:22.5px;font-variant:normal;font-weight:normal;writing-mode:lr-tb;fill:#000000;fill-opacity:1;fill-rule:nonzero;stroke:none;font-family:Cambria;-inkscape-font-specification:Cambria" />
    </text>
    <text
       id="text3037"
       x="121.04275"
       y="109.2434"
       style="font-size:3.5999999px">
      <tspan
         id="tspan3039"
         y="109.2434"
         x="121.04275"
         style="font-size:22.5px;font-variant:normal;font-weight:normal;writing-mode:lr-tb;fill:#000000;fill-opacity:1;fill-rule:nonzero;stroke:none;font-family:Cambria;-inkscape-font-specification:Cambria" />
    </text>
    <text
       id="text3043"
       x="51.675026"
       y="135.6434"
       style="font-size:3.5999999px">
      <tspan
         id="tspan3045"
         y="135.6434"
         x="51.675026"
         style="font-size:22.5px;font-variant:normal;font-weight:normal;writing-mode:lr-tb;fill:#000000;fill-opacity:1;fill-rule:nonzero;stroke:none;font-family:Cambria;-inkscape-font-specification:Cambria" />
    </text>
    <text
       id="text3073"
       x="585.75488"
       y="215.1434"
       style="font-size:3.5999999px">
      <tspan
         id="tspan3075"
         y="215.1434"
         x="585.75488"
         style="font-size:34.79999924px;font-variant:normal;font-weight:normal;writing-mode:lr-tb;fill:#000000;fill-opacity:1;fill-rule:nonzero;stroke:none;font-family:Cambria;-inkscape-font-specification:Cambria" />
    </text>
    <text
       id="text3079"
       x="51.675026"
       y="241.8434"
       style="font-size:3.5999999px">
      <tspan
         id="tspan3081"
         y="241.8434"
         x="51.675026"
         style="font-size:19.79999924px;font-variant:normal;font-weight:normal;writing-mode:lr-tb;fill:#000000;fill-opacity:1;fill-rule:nonzero;stroke:none;font-family:Cambria;-inkscape-font-specification:Cambria" />
    </text>
    <text
       id="text3091"
       x="507.09399"
       y="265.24341"
       style="font-size:3.5999999px">
      <tspan
         id="tspan3093"
         y="265.24341"
         x="507.09399"
         style="font-size:19.79999924px;font-variant:normal;font-weight:normal;writing-mode:lr-tb;fill:#000000;fill-opacity:1;fill-rule:nonzero;stroke:none;font-family:Cambria;-inkscape-font-specification:Cambria" />
    </text>
    <text
       id="text3103"
       x="380.36063"
       y="288.94339"
       style="font-size:3.5999999px">
      <tspan
         id="tspan3105"
         y="288.94339"
         x="380.36063"
         style="font-size:19.79999924px;font-variant:normal;font-weight:normal;writing-mode:lr-tb;fill:#000000;fill-opacity:1;fill-rule:nonzero;stroke:none;font-family:Cambria;-inkscape-font-specification:Cambria" />
    </text>
    <text
       id="text3109"
       x="352.67511"
       y="312.34341"
       style="font-size:3.5999999px">
      <tspan
         id="tspan3111"
         y="312.34341"
         x="352.67511"
         style="font-size:19.79999924px;font-variant:normal;font-weight:normal;writing-mode:lr-tb;fill:#000000;fill-opacity:1;fill-rule:nonzero;stroke:none;font-family:Cambria;-inkscape-font-specification:Cambria" />
    </text>
    <text
       id="text3115"
       x="421.61249"
       y="516.94342"
       style="font-size:3.5999999px">
      <tspan
         id="tspan3117"
         y="516.94342"
         x="421.61249"
         style="font-size:15px;font-variant:normal;font-weight:normal;writing-mode:lr-tb;fill:#000000;fill-opacity:1;fill-rule:nonzero;stroke:none;font-family:Cambria;-inkscape-font-specification:Cambria" />
    </text>
    <text
       id="text3121"
       x="352.67511"
       y="531.0434"
       style="font-size:3.5999999px">
      <tspan
         id="tspan3123"
         y="531.0434"
         x="352.67511"
         style="font-size:15px;font-variant:normal;font-weight:normal;writing-mode:lr-tb;fill:#000000;fill-opacity:1;fill-rule:nonzero;stroke:none;font-family:Cambria;-inkscape-font-specification:Cambria" />
    </text>
    <text
       id="text3127"
       x="352.67511"
       y="548.74341"
       style="font-size:3.5999999px">
      <tspan
         id="tspan3129"
         y="548.74341"
         x="352.67511"
         style="font-size:15px;font-variant:normal;font-weight:normal;writing-mode:lr-tb;fill:#000000;fill-opacity:1;fill-rule:nonzero;stroke:none;font-family:Cambria;-inkscape-font-specification:Cambria" />
    </text>
    <text
       id="text3139"
       x="462.34488"
       y="568.5434"
       style="font-size:3.5999999px">
      <tspan
         id="tspan3141"
         y="568.5434"
         x="462.34488"
         style="font-size:17.39999962px;font-variant:normal;font-weight:normal;writing-mode:lr-tb;fill:#000000;fill-opacity:1;fill-rule:nonzero;stroke:none;font-family:Cambria;-inkscape-font-specification:Cambria" />
    </text>
    <text
       id="text3145"
       x="352.67511"
       y="589.24341"
       style="font-size:3.5999999px">
      <tspan
         id="tspan3147"
         y="589.24341"
         x="352.67511"
         style="font-size:17.39999962px;font-variant:normal;font-weight:normal;writing-mode:lr-tb;fill:#000000;fill-opacity:1;fill-rule:nonzero;stroke:none;font-family:Cambria;-inkscape-font-specification:Cambria" />
    </text>
    <text
       id="text3151"
       x="352.67511"
       y="609.64337"
       style="font-size:3.5999999px">
      <tspan
         id="tspan3153"
         y="609.64337"
         x="352.67511"
         style="font-size:17.39999962px;font-variant:normal;font-weight:normal;writing-mode:lr-tb;fill:#000000;fill-opacity:1;fill-rule:nonzero;stroke:none;font-family:Cambria;-inkscape-font-specification:Cambria" />
    </text>
    <text
       id="text3163"
       x="511.57214"
       y="630.0434"
       style="font-size:3.5999999px">
      <tspan
         id="tspan3165"
         y="630.0434"
         x="511.57214"
         style="font-size:17.39999962px;font-variant:normal;font-weight:normal;writing-mode:lr-tb;fill:#000000;fill-opacity:1;fill-rule:nonzero;stroke:none;font-family:Cambria;-inkscape-font-specification:Cambria" />
    </text>
    <text
       id="text3169"
       x="352.67511"
       y="650.74341"
       style="font-size:3.5999999px">
      <tspan
         id="tspan3171"
         y="650.74341"
         x="352.67511"
         style="font-size:17.39999962px;font-variant:normal;font-weight:normal;writing-mode:lr-tb;fill:#000000;fill-opacity:1;fill-rule:nonzero;stroke:none;font-family:Cambria;-inkscape-font-specification:Cambria" />
    </text>
    <text
       id="text3187"
       x="454.68436"
       y="671.14337"
       style="font-size:3.5999999px">
      <tspan
         id="tspan3189"
         y="671.14337"
         x="454.68436"
         style="font-size:17.39999962px;font-variant:normal;font-weight:normal;writing-mode:lr-tb;fill:#000000;fill-opacity:1;fill-rule:nonzero;stroke:none;font-family:Cambria;-inkscape-font-specification:Cambria" />
    </text>
    <text
       id="text3193"
       x="352.67511"
       y="691.84338"
       style="font-size:3.5999999px">
      <tspan
         id="tspan3195"
         y="691.84338"
         x="352.67511"
         style="font-size:17.39999962px;font-variant:normal;font-weight:normal;writing-mode:lr-tb;fill:#000000;fill-opacity:1;fill-rule:nonzero;stroke:none;font-family:Cambria;-inkscape-font-specification:Cambria" />
    </text>
    <text
       id="text3199"
       x="352.67511"
       y="712.24341"
       style="font-size:3.5999999px">
      <tspan
         id="tspan3201"
         y="712.24341"
         x="352.67511"
         style="font-size:17.39999962px;font-variant:normal;font-weight:normal;writing-mode:lr-tb;fill:#000000;fill-opacity:1;fill-rule:nonzero;stroke:none;font-family:Cambria;-inkscape-font-specification:Cambria" />
    </text>
    <text
       id="text3211"
       x="511.57214"
       y="732.64337"
       style="font-size:3.5999999px">
      <tspan
         id="tspan3213"
         y="732.64337"
         x="511.57214"
         style="font-size:17.39999962px;font-variant:normal;font-weight:normal;writing-mode:lr-tb;fill:#000000;fill-opacity:1;fill-rule:nonzero;stroke:none;font-family:Cambria;-inkscape-font-specification:Cambria" />
    </text>
    <text
       id="text3217"
       x="352.67511"
       y="753.34338"
       style="font-size:3.5999999px">
      <tspan
         id="tspan3219"
         y="753.34338"
         x="352.67511"
         style="font-size:17.39999962px;font-variant:normal;font-weight:normal;writing-mode:lr-tb;fill:#000000;fill-opacity:1;fill-rule:nonzero;stroke:none;font-family:Cambria;-inkscape-font-specification:Cambria" />
    </text>
    <text
       id="text3241"
       x="398.56989"
       y="773.74341"
       style="font-size:3.5999999px">
      <tspan
         id="tspan3243"
         y="773.74341"
         x="398.56989"
         style="font-size:17.39999962px;font-variant:normal;font-weight:normal;writing-mode:lr-tb;fill:#000000;fill-opacity:1;fill-rule:nonzero;stroke:none;font-family:Cambria;-inkscape-font-specification:Cambria" />
    </text>
    <text
       id="text3259"
       x="468.08276"
       y="773.74341"
       style="font-size:3.5999999px">
      <tspan
         id="tspan3261"
         y="773.74341"
         x="468.08276"
         style="font-size:17.39999962px;font-variant:normal;font-weight:normal;writing-mode:lr-tb;fill:#000000;fill-opacity:1;fill-rule:nonzero;stroke:none;font-family:Cambria;-inkscape-font-specification:Cambria" />
    </text>
    <text
       id="text3265"
       x="51.675026"
       y="794.14337"
       style="font-size:3.5999999px">
      <tspan
         id="tspan3267"
         y="794.14337"
         x="51.675026"
         style="font-size:17.39999962px;font-variant:normal;font-weight:normal;writing-mode:lr-tb;fill:#000000;fill-opacity:1;fill-rule:nonzero;stroke:none;font-family:Cambria;-inkscape-font-specification:Cambria" />
    </text>
    <text
       id="text3271"
       x="51.675026"
       y="812.44342"
       style="font-size:3.5999999px">
      <tspan
         id="tspan3273"
         y="812.44342"
         x="51.675026"
         style="font-size:15px;font-variant:normal;font-weight:normal;writing-mode:lr-tb;fill:#000000;fill-opacity:1;fill-rule:nonzero;stroke:none;font-family:Cambria;-inkscape-font-specification:Cambria" />
    </text>
    <text
       id="text3283"
       x="511.57214"
       y="832.5434"
       style="font-size:3.5999999px">
      <tspan
         id="tspan3285"
         y="832.5434"
         x="511.57214"
         style="font-size:15px;font-variant:normal;font-weight:normal;writing-mode:lr-tb;fill:#000000;fill-opacity:1;fill-rule:nonzero;stroke:none;font-family:Cambria;-inkscape-font-specification:Cambria" />
    </text>
    <text
       id="text3289"
       x="352.67511"
       y="850.5434"
       style="font-size:3.5999999px">
      <tspan
         id="tspan3291"
         y="850.5434"
         x="352.67511"
         style="font-size:15px;font-variant:normal;font-weight:normal;writing-mode:lr-tb;fill:#000000;fill-opacity:1;fill-rule:nonzero;stroke:none;font-family:Cambria;-inkscape-font-specification:Cambria" />
    </text>
    <text
       id="text3301"
       x="416.83163"
       y="868.24341"
       style="font-size:3.5999999px">
      <tspan
         id="tspan3303"
         y="868.24341"
         x="416.83163"
         style="font-size:15px;font-variant:normal;font-weight:normal;writing-mode:lr-tb;fill:#000000;fill-opacity:1;fill-rule:nonzero;stroke:none;font-family:Cambria;-inkscape-font-specification:Cambria" />
    </text>
    <text
       id="text3309"
       x="352.67511"
       y="885.64337"
       style="font-size:3.5999999px">
      <tspan
         id="tspan3311"
         y="885.64337"
         x="352.67511"
         style="font-size:15px;font-variant:normal;font-weight:normal;writing-mode:lr-tb;fill:#000000;fill-opacity:1;fill-rule:nonzero;stroke:none;font-family:Cambria;-inkscape-font-specification:Cambria" />
    </text>
    <text
       id="text3333"
       x="416.88651"
       y="903.34338"
       style="font-size:3.5999999px">
      <tspan
         id="tspan3335"
         y="903.34338"
         x="416.88651"
         style="font-size:15px;font-variant:normal;font-weight:normal;writing-mode:lr-tb;fill:#000000;fill-opacity:1;fill-rule:nonzero;stroke:none;font-family:Cambria;-inkscape-font-specification:Cambria" />
    </text>
    <text
       id="text3363"
       x="409.55124"
       y="920.74341"
       style="font-size:3.5999999px">
      <tspan
         id="tspan3365"
         y="920.74341"
         x="409.55124"
         style="font-size:15px;font-variant:normal;font-weight:normal;writing-mode:lr-tb;fill:#000000;fill-opacity:1;fill-rule:nonzero;stroke:none;font-family:Cambria;-inkscape-font-specification:Cambria" />
    </text>
    <g
       transform="matrix(1.4817645,0,0,-1.4817645,518.27141,118.39672)"
       inkscape:label="ink_ext_XXXXXX"
       id="g5097">
      <g
         transform="scale(0.1,0.1)"
         id="g5099">
        <g
           id="g5101">
          <g
             clip-path="url(#clipPath5105)"
             id="g5103">
            <path
               id="path5109"
               style="fill:#241d10;fill-opacity:1;fill-rule:nonzero;stroke:none"
               d="m 325.676,443.523 c 1.078,0.079 2.156,-0.507 2.156,-1.718 l 0,-6.016 c 0,-1.738 -0.43,-2.566 -2.473,-2.949 -7.336,-1.328 -12.976,-2.051 -22.414,-2.051 -16.722,0 -28.199,9.34 -28.199,32.363 l 0,4.192 c 0,17.976 6.957,32.176 27.781,32.176 21.059,0 27.524,-14.676 27.524,-32.176 l 0,-3.781 c 0,-1.739 -0.781,-2.821 -2.34,-2.821 l -39.731,0 0,-1.027 c 0,-10.645 4.266,-17.43 15.559,-17.43 7.867,0 16.258,0.75 21.656,1.192 l 0.481,0.046 z m -8.973,27.676 c 0,11.602 -5.164,17.012 -14.176,17.012 -8.906,0 -14.484,-5.645 -14.484,-17.012 l 0,-0.781 28.66,0 0,0.781 z m 1.125,-184.535 c 1.082,0.078 2.156,-0.508 2.156,-1.719 l 0,-6.015 c 0,-1.742 -0.418,-2.563 -2.461,-2.953 -7.343,-1.329 -12.988,-2.051 -22.421,-2.051 -16.719,0 -28.204,9.34 -28.204,32.371 l 0,4.191 c 0,17.977 6.965,32.176 27.786,32.176 21.062,0 27.527,-14.676 27.527,-32.176 l 0,-3.781 c 0,-1.738 -0.781,-2.82 -2.344,-2.82 l -39.746,0 0,-1.028 c 0,-10.644 4.277,-17.425 15.567,-17.425 7.89,0 16.25,0.742 21.66,1.191 l 0.48,0.039 z m -8.976,27.68 c 0,11.601 -5.157,17.011 -14.168,17.011 -8.907,0 -14.485,-5.64 -14.485,-17.011 l 0,-0.781 28.653,0 0,0.781 z M 359.723,130 c 1.074,0.078 2.148,-0.527 2.148,-1.719 l 0,-6.015 c 0,-1.739 -0.41,-2.578 -2.461,-2.95 -7.344,-1.328 -12.98,-2.05 -22.422,-2.05 -16.699,0 -28.195,9.336 -28.195,32.363 l 0,4.18 c 0,17.988 6.965,32.187 27.785,32.187 21.055,0 27.527,-14.687 27.527,-32.187 l 0,-3.789 c 0,-1.739 -0.789,-2.813 -2.351,-2.813 l -39.738,0 0,-1.016 c 0,-10.644 4.277,-17.441 15.578,-17.441 7.871,0 16.25,0.762 21.64,1.191 l 0.489,0.059 z m -8.965,27.676 c 0,11.601 -5.176,17.012 -14.18,17.012 -8.906,0 -14.492,-5.645 -14.492,-17.012 l 0,-0.801 28.672,0 0,0.801 z m -66.328,-31.27 c -6.387,-6.289 -16.016,-9.14 -27.696,-9.14 -8.828,0 -19.238,0.722 -22.773,1.328 -1.809,0.293 -2.844,1.269 -2.844,3.359 l 0,81.777 c 0,2.032 1.035,3.047 2.844,3.36 3.535,0.605 13.945,1.308 22.773,1.308 11.582,0 21.133,-2.753 27.52,-8.925 7.578,-7.325 9.59,-17.383 9.59,-30.996 l 0,-11.27 c 0,-13.457 -1.934,-23.398 -9.414,-30.801 z m -4.375,41.504 c 0,11.602 -1.524,18.77 -6.66,23.535 -4.18,3.868 -10.04,5.235 -16.661,5.235 -5.039,0 -8.476,-0.176 -11.718,-0.352 l 0,-67.031 c 3.183,-0.176 6.679,-0.293 11.718,-0.293 6.895,0 12.95,1.484 17.149,5.742 4.863,4.902 6.172,11.777 6.172,23.027 l 0,10.137 z m 407.41,31.543 -12.547,3.652 c -1.477,0.43 -2.355,1.524 -2.355,2.852 0,1.309 0,0.762 0,0.762 0,1.328 1.027,2.422 2.355,2.422 l 23.379,0 c 1.308,0 2.402,-1.094 2.402,-2.422 l 0,-51.504 22.617,28.672 c 0.762,0.957 1.602,1.25 2.559,1.25 l 10.801,0 c 1.191,0 1.816,-0.528 1.836,-1.309 0.019,-0.43 -0.157,-0.859 -0.508,-1.269 l -24.414,-28.985 27.129,-32.89 c 0.254,-0.293 0.398,-0.645 0.41,-0.996 0.027,-0.801 -0.527,-1.524 -1.445,-1.524 l -12.395,0 c -1.316,0 -2.312,0.859 -3.172,1.992 l -23.418,29.922 0,-29.433 c 0,-1.329 -1.094,-2.481 -2.402,-2.481 l -8.438,0 c -1.32,0 -2.394,1.152 -2.394,2.481 l 0,78.808 z m -149.149,53.828 c -1.437,0.157 -2.492,1.348 -2.492,2.637 0,0.664 0,0.117 0,0.781 0,1.309 1.016,2.403 2.492,2.617 l 17.45,2.461 c 4.824,0.684 7.422,2.286 9.082,8.789 l 1.074,4.278 -1.738,0 c -3.555,0 -7.274,0.84 -9.688,9.144 l -15.859,55.004 c -0.449,1.504 0.195,2.832 2.09,2.832 l 9.386,0 c 1.024,0 1.903,-1.035 2.157,-2.051 l 13.164,-50.554 c 0.546,-2.242 1.211,-2.653 1.992,-2.653 l 1.504,0 13.828,53.336 c 0.273,1.024 1.203,1.922 2.344,1.922 l 9.492,0 c 1.699,0 2.285,-1.562 1.914,-2.832 -0.977,-3.504 -19.942,-69.754 -19.942,-69.754 -2.8,-9.785 -5.574,-12.578 -9.726,-15.117 -4.063,-2.5 -8.692,-2.812 -18.172,-1.875 l -10.352,1.035 z M 649.02,185.137 c 1.328,0 2.39,-1.074 2.429,-2.383 l 0.11,-2.93 c 6.757,4.922 12.539,6.172 17.636,6.172 1.504,0 2.469,-0.918 2.469,-2.285 l 0,-6.797 c 0,-1.328 -0.965,-2.226 -2.469,-2.226 -6.007,0 -11.054,-1.563 -16.582,-4.688 l 0,-49.355 c 0,-1.27 -1.086,-2.481 -2.402,-2.481 l -8.477,0 c -1.269,0 -2.363,1.152 -2.363,2.481 l 0,54.824 -12.07,3.652 c -1.446,0.43 -2.324,1.524 -2.324,2.852 0,1.308 0,0.761 0,0.761 0,1.329 1.015,2.403 2.324,2.403 l 21.719,0 z m -263.965,-9.668 -12.5,3.652 c -1.446,0.43 -2.325,1.524 -2.325,2.852 0,1.308 0,0.761 0,0.761 0,1.329 1.004,2.403 2.325,2.403 l 22.332,0 c 1.328,0 2.394,-1.074 2.433,-2.383 l 0.098,-2.813 c 7.305,4.493 12.344,6.055 19.863,6.055 16.25,0 20.86,-11.211 20.86,-24.57 l 0,-40.781 c 0,-1.329 -1.075,-2.481 -2.403,-2.481 l -8.398,0 c -1.34,0 -2.402,1.152 -2.402,2.481 l 0,39.375 c 0,11.308 -2.54,14.668 -11.75,14.668 -4.559,0 -9.618,-1.817 -14.903,-4.512 l 0,-49.531 c 0,-1.27 -1.074,-2.481 -2.402,-2.481 l -8.465,0 c -1.27,0 -2.363,1.152 -2.363,2.481 l 0,54.824 z m 77.461,0 -12.793,3.652 c -1.465,0.43 -2.356,1.524 -2.356,2.852 0,1.308 0,0.761 0,0.761 0,1.329 1.028,2.403 2.356,2.403 l 22.625,0 c 1.32,0 2.375,-1.074 2.433,-2.383 l 0.086,-2.813 c 5.5,3.536 11.086,6.094 17.961,6.094 5.996,0 10.137,-1.738 13.047,-5.156 6.355,3.242 12.605,5.156 19.883,5.156 12.07,0 19.715,-6.855 19.715,-22.265 l 0,-43.125 c 0,-1.329 -1.082,-2.481 -2.403,-2.481 l -8.406,0 c -1.328,0 -2.402,1.152 -2.402,2.481 l 0,41.718 c 0,9.668 -3.321,12.266 -9.805,12.266 -3.312,0 -8.117,-1.094 -12.629,-3.125 0.539,-2.656 0.781,-5.723 0.781,-9.024 l 0,-41.835 c 0,-1.27 -0.964,-2.481 -2.293,-2.481 l -8.711,0 c -1.25,0 -2.226,1.152 -2.226,2.481 l 0,41.835 c 0,9.864 -2.266,12.149 -8.77,12.149 -3.437,0 -7.871,-1.758 -12.871,-4.336 l 0,-49.648 c 0,-1.27 -0.957,-2.481 -2.285,-2.481 l -8.711,0 c -1.262,0 -2.226,1.152 -2.226,2.481 l 0,54.824 z m 160.742,-51.192 c 1.347,-0.429 2.402,-1.738 2.402,-3.105 0,-1.309 0,-0.606 0,-0.606 0,-1.308 -1.074,-2.402 -2.402,-2.402 l -20.324,0 c -1.336,0 -2.442,1.094 -2.5,2.402 l -0.086,2.696 c -5.41,-3.438 -12.051,-5.996 -18.301,-5.996 -10.109,0 -20.195,4.16 -20.195,19.785 l 0,0.957 c 0,13.34 7.988,20.156 29.14,20.156 l 8.242,0 0,5.039 c 0,8.965 -3.476,11.66 -11.718,11.66 -7.754,0 -14.524,-0.586 -18.938,-0.898 l -0.594,-0.039 c -1.144,-0.098 -2.238,0.351 -2.238,1.972 l 0,5.938 c 0,1.328 0.781,2.109 2.402,2.402 4.875,0.899 11.125,1.758 19.368,1.758 16.894,0 24.941,-8.008 24.941,-22.793 l 0,-35.43 10.801,-3.496 z m -24.024,24.786 -8.242,0 c -12.734,0 -15.871,-3.36 -15.871,-10.997 l 0,-0.957 c 0,-7.285 3.371,-9.199 9.863,-9.199 4.934,0 9.621,1.563 14.25,4.082 l 0,17.071 z m -101.015,182.968 -12.754,3.75 c -1.328,0.457 -2.356,1.477 -2.356,2.793 l 0,0.965 c 0,1.32 1.028,2.285 2.356,2.285 l 12.754,0 0,10.821 c 0,1.152 0.906,2.168 2.285,2.402 l 8.719,1.445 c 1.152,0.196 2.277,-0.574 2.277,-1.922 l 0,-12.746 11.902,0 c 1.328,0 2.403,-1.07 2.403,-2.402 l 0,-5.594 c 0,-1.32 -1.075,-2.402 -2.403,-2.402 l -11.902,0 0,-39.875 c 0,-6.313 1.023,-7.153 5.594,-7.153 l 6.562,0 c 1.621,0 2.5,-0.527 2.5,-1.738 l 0,-5.902 c 0,-1.133 -0.644,-1.856 -2.207,-2.09 -2.644,-0.43 -5.527,-0.742 -7.996,-0.742 -12.316,0 -17.734,2.949 -17.734,17.625 l 0,40.48 z M 31.9219,273.926 C 12.5039,273.926 0,283.324 0,307.605 l 0,54.297 c 0,1.262 1.01172,2.286 2.33984,2.286 l 9.19926,0 c 1.2578,0 2.3515,-0.958 2.3515,-2.286 l 0,-54.297 c 0,-14.597 4.0782,-22.074 18.0313,-22.074 13.9531,0 18.0312,7.407 18.0312,22.074 l 0,54.297 c 0,1.262 1.0274,2.286 2.3516,2.286 l 9.2031,0 c 1.2617,0 2.336,-0.958 2.336,-2.286 l 0,-54.297 c 0,-24.281 -12.5,-33.679 -31.9219,-33.679 z m 321.7461,67.898 c 1.328,0 2.371,-1.07 2.43,-2.402 l 0.097,-2.93 c 6.758,4.922 12.532,6.172 17.637,6.172 1.504,0 2.461,-0.918 2.461,-2.281 l 0,-6.801 c 0,-1.316 -0.957,-2.227 -2.461,-2.227 -6.016,0 -11.062,-1.558 -16.59,-4.683 l 0,-49.367 c 0,-1.25 -1.086,-2.461 -2.402,-2.461 l -8.488,0 c -1.25,0 -2.325,1.133 -2.325,2.461 l 0,54.832 -12.07,3.664 c -1.453,0.429 -2.352,1.531 -2.352,2.84 0,1.308 0,0.761 0,0.761 0,1.352 1.024,2.422 2.352,2.422 l 21.711,0 z m -263.7617,-9.687 -12.4961,3.664 c -1.4532,0.429 -2.3477,1.531 -2.3477,2.84 0,1.308 0,0.761 0,0.761 0,1.352 1.0234,2.422 2.3477,2.422 l 22.3203,0 c 1.3285,0 2.3825,-1.07 2.4335,-2.402 l 0.106,-2.813 c 7.304,4.512 12.343,6.055 19.863,6.055 16.25,0 20.859,-11.211 20.859,-24.57 l 0,-40.789 c 0,-1.328 -1.074,-2.461 -2.402,-2.461 l -8.406,0 c -1.34,0 -2.414,1.133 -2.414,2.461 l 0,39.383 c 0,11.308 -2.52,14.667 -11.727,14.667 -4.57,0 -9.621,-1.804 -14.914,-4.5 l 0,-49.55 c 0,-1.25 -1.074,-2.461 -2.391,-2.461 l -8.488,0 c -1.2578,0 -2.3437,1.133 -2.3437,2.461 l 0,54.832 z m 365.9567,0 -12.539,3.664 c -1.472,0.429 -2.351,1.531 -2.351,2.84 0,1.308 0,0.761 0,0.761 0,1.352 1.023,2.422 2.351,2.422 l 23.36,0 c 1.328,0 2.421,-1.07 2.421,-2.402 l 0,-62.117 c 0,-1.328 -1.093,-2.461 -2.421,-2.461 l -8.418,0 c -1.309,0 -2.403,1.133 -2.403,2.461 l 0,54.832 z m 11.133,19.484 -8.906,0 c -1.317,0 -2.461,1.082 -2.461,2.41 l 0,10.102 c 0,1.305 1.144,2.398 2.461,2.398 l 8.906,0 c 1.309,0 2.402,-1.093 2.402,-2.398 l 0,-10.102 c 0,-1.328 -1.093,-2.41 -2.402,-2.41 z m -298.359,-19.484 -12.547,3.664 c -1.477,0.429 -2.363,1.531 -2.363,2.84 0,1.308 0,0.761 0,0.761 0,1.352 1.043,2.422 2.363,2.422 l 23.367,0 c 1.32,0 2.422,-1.07 2.422,-2.402 l 0,-62.117 c 0,-1.328 -1.102,-2.461 -2.422,-2.461 l -8.418,0 c -1.316,0 -2.402,1.133 -2.402,2.461 l 0,54.832 z m 11.133,19.484 -8.907,0 c -1.316,0 -2.468,1.082 -2.468,2.41 l 0,10.102 c 0,1.305 1.152,2.398 2.468,2.398 l 8.907,0 c 1.308,0 2.382,-1.093 2.382,-2.398 l 0,-10.102 c 0,-1.328 -1.074,-2.41 -2.382,-2.41 z m 44.746,-63.547 c 0.644,-2.582 1.328,-3.246 2.402,-3.246 0.988,0 1.758,0.625 2.422,3.246 l 12.668,51.399 c 0.34,1.355 1.347,2.351 2.41,2.351 l 9.316,0 c 1.407,0 2.227,-1.23 1.797,-2.832 l -15.683,-55.961 c -2.012,-7.191 -7.266,-9.105 -12.93,-9.105 -6.367,0 -11.004,2.461 -12.871,9.105 l -15.684,55.961 c -0.418,1.504 0.313,2.832 1.817,2.832 l 9.316,0 c 1.016,0 1.965,-0.808 2.344,-2.351 l 12.676,-51.399 z m 164.668,-1.918 c 5.812,-0.273 15.468,-1.269 19.433,-1.269 7.637,0 10.215,2.285 10.215,7.152 0,2.941 -1.797,4.805 -7.148,8.059 l -14.297,8.66 c -6.621,4.023 -11.192,9.621 -11.192,16.894 0,12.27 8.477,17.012 22.305,17.012 8.223,0 14.199,-0.84 20.09,-1.98 1.492,-0.301 2.215,-1.211 2.215,-2.59 l 0,-5.477 c 0,-1.437 -0.782,-2.16 -1.992,-2.16 -0.176,0 -0.293,0 -0.411,0 -3.808,0.215 -12.441,1.203 -19.238,1.203 -6.25,0 -9.746,-1.086 -9.746,-6.008 0,-2.769 2.297,-4.511 6.555,-7.039 l 13.816,-8.351 c 10.059,-6.016 12.383,-11.61 12.383,-18.223 0,-11.371 -8.399,-18.113 -23.008,-18.113 -4.57,0 -13.945,0.547 -20.273,2.129 -1.485,0.351 -2.383,1.191 -2.383,2.582 l 0,5.703 c 0,1.015 0.988,1.914 2.187,1.855 l 0.489,-0.039 z m -114.696,223.219 -22.254,0 0,-75.266 c 0,-1.269 -0.961,-2.402 -2.277,-2.402 l -9.258,0 c -1.261,0 -2.285,1.074 -2.285,2.402 l 0,75.266 -22.238,0 c -1.321,0 -2.414,0.723 -2.414,2.051 l 0,7.39 c 0,1.27 1.093,2.227 2.414,2.227 l 58.312,0 c 1.325,0 2.336,-0.906 2.336,-2.227 l 0,-7.39 c 0,-1.262 -1.011,-2.051 -2.336,-2.051 z m 208.926,-20.383 -11.34,3.594 c -1.472,0.469 -2.363,1.602 -2.363,2.91 0,1.309 0,0.762 0,0.762 0,1.347 1.035,2.422 2.363,2.422 l 21.172,0 c 1.328,0 2.395,-1.075 2.434,-2.403 l 0.086,-2.812 c 7.324,4.512 12.363,6.055 19.882,6.055 16.231,0 20.86,-11.211 20.86,-24.571 l 0,-40.777 c 0,-1.332 -1.094,-2.465 -2.422,-2.465 l -8.406,0 c -1.321,0 -2.403,1.133 -2.403,2.465 l 0,39.371 c 0,11.309 -2.531,14.668 -11.718,14.668 -4.571,0 -9.621,-1.805 -14.903,-4.5 l 0,-49.539 c 0,-1.262 -1.086,-2.465 -2.414,-2.465 l -8.476,0 c -1.27,0 -2.352,1.133 -2.352,2.465 l 0,54.82 z m 77.371,0 -12.558,3.664 c -1.465,0.43 -2.352,1.532 -2.352,2.84 0,1.309 0,0.762 0,0.762 0,1.347 1.023,2.422 2.352,2.422 l 23.378,0 c 1.329,0 2.403,-1.075 2.403,-2.403 l 0,-62.105 c 0,-1.332 -1.074,-2.465 -2.403,-2.465 l -8.406,0 c -1.32,0 -2.414,1.133 -2.414,2.465 l 0,54.82 z m 11.055,19.485 -8.887,0 c -1.328,0 -2.469,1.082 -2.469,2.41 l 0,10.097 c 0,1.309 1.141,2.403 2.469,2.403 l 8.887,0 c 1.328,0 2.422,-1.094 2.422,-2.403 l 0,-10.097 c 0,-1.328 -1.094,-2.41 -2.422,-2.41 z m -165.871,4.511 -12.5,3.653 c -1.473,0.437 -2.356,1.511 -2.356,2.839 0,1.321 0,0.762 0,0.762 0,1.328 1.028,2.422 2.356,2.422 l 23.379,0 c 1.32,0 2.332,-1.094 2.332,-2.422 l 0,-24.812 c 5.168,2.644 11.425,4.09 18.277,4.09 14.676,0 21.59,-9.571 21.59,-25.801 l 0,-39.547 c 0,-1.332 -1.074,-2.465 -2.402,-2.465 l -8.426,0 c -1.309,0 -2.399,1.133 -2.399,2.465 l 0,39.547 c 0,11.25 -3.433,14.433 -11.371,14.433 -3.898,0 -10.101,-1.191 -15.269,-3.73 l 0,-50.25 c 0,-1.262 -1.075,-2.465 -2.395,-2.465 l -8.48,0 c -1.258,0 -2.336,1.133 -2.336,2.465 l 0,78.816 z m 319.992,0 -12.391,3.653 c -1.445,0.437 -2.324,1.511 -2.324,2.839 0,1.321 0,0.762 0,0.762 0,1.328 1.004,2.422 2.324,2.422 l 23.379,0 c 1.27,0 2.227,-1.016 2.227,-2.351 l 0,-86.141 c 0,-1.262 -0.899,-2.465 -2.227,-2.465 l -8.711,0 c -1.269,0 -2.277,1.133 -2.277,2.465 l 0,78.816 z m -13.867,-181.183 -13.621,4.101 c -1.309,0.473 -2.325,1.465 -2.325,2.793 l 0,0.969 c 0,1.316 1.016,2.273 2.325,2.273 l 13.621,0 0,7.278 c 0,14.187 7.277,17.976 18.808,17.976 3.078,0 5.059,-0.371 6.993,-0.84 1.144,-0.273 2.218,-0.839 2.218,-1.914 l 0,-5.535 c 0,-1.386 -0.898,-1.926 -1.992,-1.926 l -5.586,0 c -5.703,0 -7.207,-1.503 -7.207,-7.761 l 0,-7.278 12.078,0 c 1.321,0 2.336,-1.015 2.336,-2.273 l 0,-5.949 c 0,-1.27 -1.015,-2.168 -2.336,-2.168 l -12.078,0 0,-54.11 c 0,-1.269 -1.094,-2.48 -2.363,-2.48 l -8.399,0 c -1.328,0 -2.472,1.211 -2.472,2.48 l 0,54.364 z m -48.887,-57.742 c -18.281,0 -27.715,12.21 -27.715,29.656 l 0,9.433 c 0,17.434 9.434,29.649 27.715,29.649 18.281,0 27.785,-12.215 27.785,-29.649 l 0,-9.433 c 0,-17.446 -9.504,-29.656 -27.785,-29.656 z m 14.551,39.089 c 0,11.067 -4.695,18.145 -14.551,18.145 -9.805,0 -14.492,-7.031 -14.492,-18.145 l 0,-9.433 c 0,-11.063 4.64,-18.168 14.492,-18.168 9.797,0 14.551,7.039 14.551,18.168 l 0,9.433 z m -42.07,129.836 c 1.132,0.067 2.218,-0.597 2.218,-1.789 l 0,-6.07 c 0,-1.742 -0.48,-2.465 -2.472,-2.883 -3.36,-0.723 -8.77,-1.457 -15.262,-1.457 -15.988,0 -26.516,10.598 -26.516,29.219 l 0,10.293 c 0,18.633 10.449,29.219 26.516,29.219 6.426,0 11.902,-0.723 15.262,-1.446 1.992,-0.429 2.472,-1.094 2.472,-2.89 l 0,-6.063 c 0,-1.203 -1.027,-1.855 -2.179,-1.789 l -0.411,0 c -5.078,0.246 -8.289,0.82 -15.144,0.82 -7.629,0 -13.274,-4.804 -13.274,-17.851 l 0,-10.293 c 0,-12.969 5.579,-17.84 13.274,-17.84 6.855,0 10.066,0.422 15.086,0.781 l 0.43,0.039 z m -248.262,0 c 1.144,0.067 2.23,-0.597 2.23,-1.789 l 0,-6.07 c 0,-1.742 -0.476,-2.465 -2.465,-2.883 -3.359,-0.723 -8.777,-1.457 -15.261,-1.457 -15.996,0 -26.508,10.598 -26.508,29.219 l 0,10.293 c 0,18.633 10.457,29.219 26.508,29.219 6.437,0 11.902,-0.723 15.261,-1.446 1.989,-0.429 2.465,-1.094 2.465,-2.89 l 0,-6.063 c 0,-1.203 -1.035,-1.855 -2.176,-1.789 l -0.417,0 c -5.075,0.246 -8.286,0.82 -15.133,0.82 -7.633,0 -13.297,-4.804 -13.297,-17.851 l 0,-10.293 c 0,-12.969 5.597,-17.84 13.297,-17.84 6.847,0 10.066,0.422 15.086,0.781 l 0.41,0.039 z m 324.816,-5.168 c 1.348,-0.449 2.403,-1.738 2.403,-3.125 0,-1.308 0,-0.586 0,-0.586 0,-1.328 -1.075,-2.402 -2.403,-2.402 l -20.332,0 c -1.308,0 -2.441,1.074 -2.48,2.402 l -0.098,2.688 c -5.41,-3.449 -12.051,-6.008 -18.312,-6.008 -10.098,0 -20.196,4.16 -20.196,19.785 l 0,0.969 c 0,13.34 7.989,20.145 29.153,20.145 l 8.242,0 0,5.05 c 0,8.953 -3.489,11.649 -11.719,11.649 -7.754,0 -14.523,-0.574 -18.926,-0.899 l -0.597,-0.039 c -1.141,-0.097 -2.235,0.352 -2.235,1.973 l 0,5.937 c 0,1.329 0.781,2.11 2.391,2.403 4.883,0.918 11.133,1.758 19.367,1.758 16.895,0 24.949,-7.997 24.949,-22.782 l 0,-35.441 10.793,-3.477 z m -24.023,24.785 -8.242,0 c -12.747,0 -15.86,-3.367 -15.86,-10.996 l 0,-0.976 c 0,-7.266 3.36,-9.199 9.863,-9.199 4.922,0 9.61,1.582 14.239,4.093 l 0,17.078"
               inkscape:connector-curvature="0" />
            <path
               id="path5111"
               style="fill:#a09d9e;fill-opacity:1;fill-rule:nonzero;stroke:none"
               d="m 957.328,566.609 c -1.551,0 -2.5,-0.449 -3.172,-1.152 -0.683,-0.684 -1.133,-1.621 -1.133,-3.172 l 0,-197.121 c 0,-1.551 0.45,-2.48 1.133,-3.172 0.672,-0.683 1.621,-1.144 3.172,-1.144 l 51.552,0 c 20.04,0 32.25,4.562 39.67,14.14 10.92,13.098 11.26,34.219 11.26,66.621 l 0,44.239 c 0,32.382 -0.34,53.515 -11.26,66.613 -7.42,9.59 -19.63,14.148 -39.67,14.148 l -51.552,0 z m 28.399,-24.062 18.173,0 c 8.05,0 12.83,-1.309 16.54,-5.762 5.73,-6.875 6.23,-20.722 6.23,-48.68 l 0,-48.761 c 0,-27.957 -0.5,-41.824 -6.23,-48.672 -3.71,-4.473 -8.49,-5.77 -16.54,-5.77 l -18.173,0 0,157.645 z m 313.193,19.738 c 0,1.551 -0.47,2.488 -1.15,3.172 -0.69,0.703 -1.62,1.152 -3.17,1.152 l -24.1,0 c -1.54,0 -2.5,-0.449 -3.16,-1.152 -0.68,-0.684 -1.15,-1.621 -1.15,-3.172 l 0,-145.519 c 0,-15.196 -1.16,-24.227 -6.08,-29.649 -3.36,-3.672 -8.08,-5.469 -14.72,-5.469 -6.02,0 -10.59,1.68 -14.07,5.508 -4.66,5.141 -6.09,13.867 -6.09,29.61 l 0,145.519 c 0,1.551 -0.47,2.488 -1.15,3.172 -0.69,0.703 -1.62,1.152 -3.18,1.152 l -24.08,0 c -1.55,0 -2.49,-0.449 -3.18,-1.152 -0.7,-0.684 -1.14,-1.621 -1.14,-3.172 l 0,-145.578 c 0,-21.18 2.88,-34.473 11.3,-43.719 8.75,-9.629 21.98,-14.746 42.02,-14.746 20.26,0 33.32,5.418 41.34,14.754 9.44,10.977 11.76,24.043 11.76,43.711 l 0,145.578 z M 1143.33,365.164 c 0,-1.551 -0.46,-2.48 -1.15,-3.172 -0.69,-0.683 -1.62,-1.144 -3.17,-1.144 l -26.36,0 c -1.54,0 -2.5,0.461 -3.16,1.144 -0.71,0.692 -1.15,1.621 -1.15,3.172 l 0,175.441 -30.96,0 c -1.56,0 -2.49,0.458 -3.19,1.141 -0.68,0.676 -1.13,1.621 -1.13,3.164 l 0,17.375 c 0,1.551 0.45,2.488 1.13,3.172 0.7,0.703 1.63,1.152 3.19,1.152 l 96.91,0 c 1.54,0 2.48,-0.449 3.17,-1.152 0.68,-0.684 1.15,-1.621 1.15,-3.172 l 0,-17.375 c 0,-1.543 -0.47,-2.488 -1.15,-3.164 -0.69,-0.683 -1.63,-1.141 -3.17,-1.141 l -30.96,0 0,-175.441"
               inkscape:connector-curvature="0" />
            <path
               id="path5113"
               style="fill:#c4122e;fill-opacity:1;fill-rule:nonzero;stroke:none"
               d="m 1320.75,257.871 -82.67,-43.379 c -107.03,41.621 -116.05,41.621 -223.1,0 l -82.66,43.379 82.66,43.406 c 107.05,-41.648 116.07,-41.648 223.1,0 l 82.67,-43.406 z m 0,-107.246 -82.67,-43.379 c -107.03,41.621 -116.05,41.621 -223.1,0 l -82.66,43.379 82.66,43.398 c 107.05,-41.64 116.07,-41.64 223.1,0 l 82.67,-43.398 z m 0,-107.2461 L 1238.08,0 c -107.03,41.6211 -116.05,41.6211 -223.1,0 l -82.66,43.3789 82.66,43.3789 c 107.05,-41.6211 116.07,-41.6211 223.1,0 l 82.67,-43.3789"
               inkscape:connector-curvature="0" />
          </g>
        </g>
      </g>
    </g>
    <text
       xml:space="preserve"
       style="font-size:40px;font-style:normal;font-variant:normal;font-weight:normal;font-stretch:normal;text-align:center;line-height:125%;letter-spacing:0px;word-spacing:0px;writing-mode:lr-tb;text-anchor:middle;fill:#000000;fill-opacity:1;stroke:none;font-family:Sans;-inkscape-font-specification:Sans"
       x="372.16687"
       y="273.78912"
       id="text3161"
       sodipodi:linespacing="125%"><tspan
         sodipodi:role="line"
         x="372.16687"
         y="273.78912"
         style="font-size:35px;font-style:normal;font-variant:normal;font-weight:bold;font-stretch:normal;text-align:center;line-height:125%;writing-mode:lr-tb;text-anchor:middle;font-family:Times New Roman;-inkscape-font-specification:'Times New Roman, Bold'"
         id="tspan3112">TravelGood Booking Service</tspan><tspan
         sodipodi:role="line"
         x="372.16687"
         y="308.62088"
         style="font-size:24px;font-style:normal;font-variant:normal;font-weight:bold;font-stretch:normal;text-align:center;line-height:125%;writing-mode:lr-tb;text-anchor:middle;font-family:Times New Roman;-inkscape-font-specification:'Times New Roman, Bold'"
         id="tspan3116">02267 Software Development of Web Services</tspan></text>
    <text
       xml:space="preserve"
       style="font-size:16px;font-style:normal;font-variant:normal;font-weight:normal;font-stretch:normal;line-height:125%;letter-spacing:0px;word-spacing:0px;fill:#000000;fill-opacity:1;stroke:none;font-family:Verdana;-inkscape-font-specification:Verdana"
       x="245.06677"
       y="903.86981"
       id="text3210"
       sodipodi:linespacing="125%"><tspan
         sodipodi:role="line"
         id="tspan3212"
         x="245.06677"
         y="903.86981">Mads Winther-Jensen, s093116</tspan></text>
    <text
       sodipodi:linespacing="125%"
       id="text3226"
       y="811.69342"
       x="258.48865"
       style="font-size:16px;font-style:normal;font-variant:normal;font-weight:normal;font-stretch:normal;line-height:125%;letter-spacing:0px;word-spacing:0px;fill:#000000;fill-opacity:1;stroke:none;font-family:Verdana;-inkscape-font-specification:Verdana"
       xml:space="preserve"><tspan
         y="811.69342"
         x="258.48865"
         id="tspan3228"
         sodipodi:role="line">Mathias Svendsen, s103036</tspan></text>
    <text
       xml:space="preserve"
       style="font-size:16px;font-style:normal;font-variant:normal;font-weight:normal;font-stretch:normal;line-height:125%;letter-spacing:0px;word-spacing:0px;fill:#000000;fill-opacity:1;stroke:none;font-family:Verdana;-inkscape-font-specification:Verdana"
       x="282.61755"
       y="719.51697"
       id="text3236"
       sodipodi:linespacing="125%"><tspan
         sodipodi:role="line"
         id="tspan3238"
         x="282.61755"
         y="719.51697">Viktor Lesyk, s135553</tspan></text>
    <text
       sodipodi:linespacing="125%"
       id="text3242"
       y="725.51312"
       x="163.89578"
       style="font-size:44.57336807px;font-style:normal;font-weight:normal;line-height:125%;letter-spacing:0px;word-spacing:0px;fill:#000000;fill-opacity:1;stroke:none;font-family:Sans"
       xml:space="preserve"
       transform="scale(1.1022765,0.90721338)"><tspan
         style="font-size:22.28668404px"
         y="725.51312"
         x="163.89578"
         id="tspan3244"
         sodipodi:role="line">____________________________</tspan></text>
    <text
       sodipodi:linespacing="125%"
       id="text3246"
       y="627.34058"
       x="180.78552"
       style="font-size:16px;font-style:normal;font-variant:normal;font-weight:normal;font-stretch:normal;line-height:125%;letter-spacing:0px;word-spacing:0px;fill:#000000;fill-opacity:1;stroke:none;font-family:Verdana;-inkscape-font-specification:Verdana"
       xml:space="preserve"><tspan
         id="tspan3260"
         y="627.34058"
         x="180.78552"
         sodipodi:role="line">Alexander Amer Hachach Sønderskov, s123162</tspan></text>
    <text
       xml:space="preserve"
       style="font-size:16px;font-style:normal;font-variant:normal;font-weight:normal;font-stretch:normal;line-height:125%;letter-spacing:0px;word-spacing:0px;fill:#000000;fill-opacity:1;stroke:none;font-family:Verdana;-inkscape-font-specification:Verdana"
       x="270.76599"
       y="535.16412"
       id="text3256"
       sodipodi:linespacing="125%"><tspan
         sodipodi:role="line"
         id="tspan3258"
         x="270.76599"
         y="535.16412">Julian Villadsen, s123641</tspan></text>
    <text
       sodipodi:linespacing="125%"
       id="text3306"
       y="484.91101"
       x="372.16687"
       style="font-size:40px;font-style:normal;font-variant:normal;font-weight:normal;font-stretch:normal;text-align:center;line-height:125%;letter-spacing:0px;word-spacing:0px;writing-mode:lr-tb;text-anchor:middle;fill:#000000;fill-opacity:1;stroke:none;font-family:Sans;-inkscape-font-specification:Sans"
       xml:space="preserve"><tspan
         id="tspan3310"
         style="font-size:35px;font-style:normal;font-variant:normal;font-weight:bold;font-stretch:normal;text-align:center;line-height:125%;writing-mode:lr-tb;text-anchor:middle;font-family:Times New Roman;-inkscape-font-specification:'Times New Roman, Bold'"
         y="484.91101"
         x="372.16687"
         sodipodi:role="line">Group 17</tspan></text>
    <text
       transform="scale(1.1022765,0.90721338)"
       xml:space="preserve"
       style="font-size:44.57336807px;font-style:normal;font-weight:normal;line-height:125%;letter-spacing:0px;word-spacing:0px;fill:#000000;fill-opacity:1;stroke:none;font-family:Sans"
       x="163.89578"
       y="620.84717"
       id="text3346"
       sodipodi:linespacing="125%"><tspan
         sodipodi:role="line"
         id="tspan3348"
         x="163.89578"
         y="620.84717"
         style="font-size:22.28668404px">____________________________</tspan></text>
    <text
       sodipodi:linespacing="125%"
       id="text3350"
       y="821.2713"
       x="163.89578"
       style="font-size:44.57336807px;font-style:normal;font-weight:normal;line-height:125%;letter-spacing:0px;word-spacing:0px;fill:#000000;fill-opacity:1;stroke:none;font-family:Sans"
       xml:space="preserve"
       transform="scale(1.1022765,0.90721338)"><tspan
         style="font-size:22.28668404px"
         y="821.2713"
         x="163.89578"
         id="tspan3352"
         sodipodi:role="line">____________________________</tspan></text>
    <text
       transform="scale(1.1022765,0.90721338)"
       xml:space="preserve"
       style="font-size:44.57336807px;font-style:normal;font-weight:normal;line-height:125%;letter-spacing:0px;word-spacing:0px;fill:#000000;fill-opacity:1;stroke:none;font-family:Sans"
       x="163.89578"
       y="925.93726"
       id="text3354"
       sodipodi:linespacing="125%"><tspan
         sodipodi:role="line"
         id="tspan3356"
         x="163.89578"
         y="925.93726"
         style="font-size:22.28668404px">____________________________</tspan></text>
    <text
       sodipodi:linespacing="125%"
       id="text3358"
       y="1026.1493"
       x="163.89578"
       style="font-size:44.57336807px;font-style:normal;font-weight:normal;line-height:125%;letter-spacing:0px;word-spacing:0px;fill:#000000;fill-opacity:1;stroke:none;font-family:Sans"
       xml:space="preserve"
       transform="scale(1.1022765,0.90721338)"><tspan
         style="font-size:22.28668404px"
         y="1026.1493"
         x="163.89578"
         id="tspan3360"
         sodipodi:role="line">____________________________</tspan></text>
  </g>
</svg>
